<?xml version="1.0" encoding="utf-8"?>
<!-- Generator: Adobe Illustrator 16.0.4, SVG Export Plug-In . SVG Version: 6.00 Build 0)  -->
<!DOCTYPE svg PUBLIC "-//W3C//DTD SVG 1.1//EN" "http://www.w3.org/Graphics/SVG/1.1/DTD/svg11.dtd">
<svg version="1.1" id="Layer_1" xmlns="http://www.w3.org/2000/svg" xmlns:xlink="http://www.w3.org/1999/xlink" x="0px" y="0px"
	 width="612px" height="792px" viewBox="0 0 612 792" enable-background="new 0 0 612 792" xml:space="preserve">
<g>
	<g>
		<path fill="#FEFEFE" d="M85.142,521c0-145.955,0.078-291.909-0.216-437.863c-0.016-7.737,1.687-9.225,9.337-9.212
			c161.913,0.268,323.827,0.204,485.741,0.204c-6.256,9.484-17.214,11.463-26.574,15.108
			c-31.176,12.134-62.189,24.617-92.939,37.777c-7.094,3.036-4.995,5.266-0.225,8.148c9.45,5.713,19.098,11.091,28.585,16.731
			c11.12,6.61,11.515,10.521,5.315,21.452c-24.33,42.902-48.618,85.827-71.976,129.27c-10.739,19.975-22.479,39.413-33.52,59.229
			c-3.632,6.519-8.738,7.244-13.907,2.12c-6.029-5.977-12.692-11.49-16.822-19.135c-1.856-3.493-4.719-5.989-8.095-7.976
			c-6.735-7.508-15.57-13.171-20.224-22.527c-1.99-3.853-5.131-6.587-8.764-8.846c-5.803-4.219-10.405-9.696-15.088-14.975
			c-3.27-3.685-4.838-3.674-8.151-0.071c-15.616,16.982-30.905,34.255-46.143,51.563c-20.631,23.435-41.763,46.42-62.481,69.774
			c-11.77,13.267-23.222,26.817-35.523,39.608c-2.799,2.485-5.282,5.241-7.198,8.477c-3.121,4.021-6.977,7.351-10.469,11.022
			c-2.69,2.41-4.978,5.151-6.807,8.271c-3.1,3.972-6.914,7.27-10.373,10.903c-2.906,2.802-5.934,5.49-8.074,8.976
			c-2.518,3.828-5.887,6.899-9.055,10.151c-2.702,2.404-4.958,5.173-6.82,8.271c-1.733,2.411-4.059,3.913-6.981,4.502
			C86.693,522.03,85.843,521.713,85.142,521z"/>
		<path fill-rule="evenodd" clip-rule="evenodd" fill="#FEFEFE" d="M597.143,214.573c0,100.224-0.086,200.45,0.188,300.675
			c0.02,6.859-1.834,8.04-8.299,8.031c-142.256-0.199-284.511-0.151-426.768-0.151c2.941-11.406,12.982-17.554,19.638-26.209
			c3.019-2.861,6.17-5.604,8.413-9.177c2.57-3.88,5.986-7.01,9.207-10.317c2.375-2.222,4.545-4.611,6.241-7.408
			c8.53-9.429,16.896-19,25.419-28.427c3.024-2.867,6.181-5.617,8.422-9.199c2.582-3.898,6.021-7.037,9.246-10.37
			c2.399-2.25,4.549-4.707,6.272-7.522c12.499-14.048,24.934-28.146,37.395-42.218c8.321-9.399,9.522-8.915,18.391-0.458
			c9.273,8.844,16.915,19.147,26.094,28.052c2.672,3.446,5.703,6.565,8.903,9.528c10.604,13.229,23.075,24.785,34.18,37.565
			c2.107,2.695,4.469,5.162,6.961,7.507c4.548,5.105,6.923,2.242,9.377-2.224c18.24-33.195,37.157-66.029,56.052-98.845
			c21.732-37.746,43.259-75.613,65.119-113.287c8.355-14.399,16.488-28.927,24.934-43.27c6.221-10.563,9.19-11.122,19.55-5.11
			c9.529,5.53,18.876,11.367,28.474,16.783C593.269,209.977,594.99,212.506,597.143,214.573z"/>
		<path fill-rule="evenodd" clip-rule="evenodd" fill="#119748" d="M183.911,498.214c-7.215,8.304-14.432,16.61-21.647,24.914
			c-24.993,0-49.986,0-74.979,0c-0.577-0.486-0.738-0.929-0.485-1.328c0.237-0.376,0.466-0.562,0.689-0.562
			c2.004-1.516,4.007-3.03,6.012-4.547c2.235-2.94,5.167-5.391,6.437-9.013c1.587-4.72,7.136-5.853,9.261-10.085
			c3.118-2.596,6.543-4.93,7.865-9.065c2.228-4.775,6.929-6.976,10.703-10.143c2.251-2.931,5.171-5.389,6.448-9.009
			c2.211-4.79,6.927-6.97,10.691-10.143c2.242-2.955,5.234-5.385,6.427-9.073c19.753-21.653,38.496-44.172,58.786-65.394
			c19.017-19.889,36.174-41.522,54.418-62.151c12.476-14.108,25.415-27.809,38.702-42.297c3.01,11.28,13.618,15.542,19.703,23.711
			c2.11,3.4,4.93,6.12,8.189,8.417c3.303,10.442,15.516,13.267,19.814,22.857c2.337,2.716,5.314,4.698,8.069,6.937
			c3.729,7.658,11.482,11.739,16.462,18.212c5.215,6.781,7.967,5.675,11.854-1.428c19.704-35.997,39.6-71.897,59.899-107.568
			c15.9-27.942,30.079-56.854,47.796-83.783c2.897-4.403,2.23-8.023-3.144-10.968c-12.774-6.999-25.21-14.607-37.785-21.961
			c-2.128-1.245-4.908-2.145-5.019-5.002c-0.138-3.551,3.534-2.955,5.483-3.782c13.584-5.762,27.041-11.993,41.032-16.587
			c20.499-6.733,39.237-17.607,60.199-23.555c7.927-2.251,16.826-6.378,24.212-11.689c0.715,0,1.428,0,2.143,0
			c1.139,1.128,1.523,2.521,1.447,4.071c-0.666,3.271-1.179,6.573-1.913,9.846c-1.112,4.964,2.697-2.055,2.646,0.956
			c3.663,4.04,2.688,8.773,2.099,13.449c-0.48,2.82-1.955,5.285-2.925,7.934c-0.159,0.435-0.791,1.091-0.059,1.652
			c0.061-1.147,0.604-1.916,1.765-2.224c3.721,1.534,3.368,4.68,3.178,7.768c-0.87,3.318-0.896,6.924-2.301,10.026
			c-1.835,4.046,0.919,1.351,1.827,1.432c3.061,1.947,2.895,4.896,2.568,7.901c-0.917,3.277-0.962,6.816-2.277,9.941
			c-1.452,3.454,0.354,1.797,1.65,1.255c2.661,1.386,2.756,3.78,2.576,6.291c-0.974,3.574-1.104,7.292-1.717,10.933
			c-0.129,0.771-3.047,4.059,1.368,1.953c3.334,1.86,2.777,4.975,2.663,7.949c-1.142,3.693-1.624,7.552-2.575,11.301
			c-0.52,2.051,1.813-1.303,2.689,0.187c2.049,2.992,1.111,6.182,0.696,9.347c-2.59,4.559,3.357,12.298-5.492,14.507
			c-10.149-5.756-20.792-10.823-30.295-17.487c-7.85-5.507-10.596-3.109-14.729,4.235c-27.383,48.667-55.257,97.061-83.002,145.528
			c-22.992,40.163-46.026,80.304-69.122,120.594c-4.109-1.272-5.859-4.809-8.052-7.889c-0.887-3.192-3.345-5.074-5.843-6.924
			c-12.571-11.708-24.184-24.291-34.875-37.716c-1.315-4.193-4.742-6.561-7.971-9.1c-11.251-11.561-22.502-23.123-34.269-35.213
			c-15.255,16.708-30.503,33.41-45.751,50.111c-2.509,1.842-4.972,3.725-5.857,6.925c-1.572,4.724-7.154,5.831-9.236,10.097
			c-3.149,2.594-6.621,4.913-7.875,9.123c-8.698,9.79-16.44,20.43-26.303,29.183c-2.511,1.841-4.971,3.724-5.858,6.922
			c-1.521,4.771-7.15,5.838-9.233,10.102C188.635,491.683,185.171,494.008,183.911,498.214z"/>
		<path fill-rule="evenodd" clip-rule="evenodd" fill="#FCFDFC" d="M594.608,195.492c0.172-3.098,0.212-6.172-1.583-8.925
			c-2.143-3.3-1.287-6.76-0.544-10.211c0.401-3.159,0.091-6.195-1.554-9.004c-2.253-3.978-1.233-8.127-0.66-12.254
			c-0.461-2.351-0.924-4.701-1.386-7.051c-2.43-3.192-1.387-6.606-0.644-10c0.211-3.18,0.414-6.359-1.47-9.208
			c-2.485-3.175-1.427-6.573-0.642-9.954c0.347-3.221,0.399-6.395-1.47-9.269c-2.236-1.7-1.548-3.664-0.521-5.658
			c0.316-5.2,0.567-10.391-1.823-15.27c-2.138-3.304-1.291-6.764-0.539-10.218c0.124-1.449,0.248-2.895,0.373-4.341
			c14.996,0,14.996,0,14.996,14.896c0,37.595,0,75.188,0,112.782c-0.952,0.692-1.866,0.646-2.744-0.137
			C593.847,199.588,593.714,197.523,594.608,195.492z"/>
		<path fill-rule="evenodd" clip-rule="evenodd" fill="#0C9643" d="M594.608,195.492c0.254,2.039,0.508,4.08,0.762,6.12
			c1.83,3.41-0.742,7.533,1.772,10.833c0,0.709,0,1.419,0,2.128c-2.908-0.359-5.322-1.585-7.082-3.969
			C595.855,206.837,590.279,199.694,594.608,195.492z"/>
		<path fill-rule="evenodd" clip-rule="evenodd" fill="#A5D2B4" d="M597.143,212.445c-2.829-3.25-2.144-7.067-1.772-10.833
			c0.612-0.126,1.202-0.062,1.772,0.193C597.143,205.353,597.143,208.898,597.143,212.445z"/>
		<path fill-rule="evenodd" clip-rule="evenodd" fill="#93C8A5" d="M87.488,521.237c-0.177,0.619-0.245,1.249-0.204,1.891
			c-1.844,0.413-2.559-0.297-2.143-2.128C85.925,521.079,86.707,521.158,87.488,521.237z"/>
		<path fill-rule="evenodd" clip-rule="evenodd" fill="#0F9849" d="M117.063,488.527c0.011,5.276-2.874,8.071-7.865,9.065
			C110.572,493.503,113.755,490.961,117.063,488.527z"/>
		<path fill-rule="evenodd" clip-rule="evenodd" fill="#079643" d="M331.13,312.445c-4.853-0.767-7.605-3.552-8.189-8.417
			C326.915,305.64,329.594,308.493,331.13,312.445z"/>
		<path fill-rule="evenodd" clip-rule="evenodd" fill="#089643" d="M359.014,342.239c-4.309-0.455-6.756-3.044-8.069-6.937
			C355.392,335.597,357.593,338.469,359.014,342.239z"/>
		<path fill-rule="evenodd" clip-rule="evenodd" fill="#089642" d="M151.332,450.16c0.341,4.761-2.586,7.235-6.427,9.073
			C145.11,454.854,148.123,452.438,151.332,450.16z"/>
		<path fill-rule="evenodd" clip-rule="evenodd" fill="#089643" d="M134.213,469.376c0.292,4.726-2.627,7.187-6.448,9.009
			C128.027,474.048,130.917,471.566,134.213,469.376z"/>
		<path fill-rule="evenodd" clip-rule="evenodd" fill="#089643" d="M99.937,507.678c0.296,4.726-2.628,7.182-6.437,9.013
			C93.684,512.303,96.715,509.924,99.937,507.678z"/>
		<path fill-rule="evenodd" clip-rule="evenodd" fill="#099644" d="M183.911,498.214c-0.049-5.322,2.83-8.146,7.88-9.119
			C190.417,493.203,187.218,495.753,183.911,498.214z"/>
		<path fill-rule="evenodd" clip-rule="evenodd" fill="#0A9644" d="M233.185,442.889c-0.055-5.324,2.828-8.146,7.875-9.123
			C239.67,437.859,236.5,440.435,233.185,442.889z"/>
		<path fill-rule="evenodd" clip-rule="evenodd" fill="#089643" d="M336.173,401.847c5.092,0.929,7.976,3.766,7.971,9.1
			C340.9,408.42,337.473,406.053,336.173,401.847z"/>
		<path fill-rule="evenodd" clip-rule="evenodd" fill="#089643" d="M250.296,423.669c-0.247-4.144,1.617-6.525,5.857-6.925
			C255.439,420.084,252.887,421.892,250.296,423.669z"/>
		<path fill-rule="evenodd" clip-rule="evenodd" fill="#089642" d="M379.019,448.662c4.232,0.407,6.082,2.795,5.843,6.924
			C382.279,453.807,379.7,452.024,379.019,448.662z"/>
		<path fill-rule="evenodd" clip-rule="evenodd" fill="#089643" d="M201.024,478.993c-0.245-4.144,1.618-6.524,5.858-6.922
			C206.171,475.415,203.611,477.215,201.024,478.993z"/>
		<path fill-rule="evenodd" clip-rule="evenodd" fill="#009137" d="M590.268,155.097c0.22,4.083,0.439,8.169,0.659,12.254
			c-0.097,0.334-0.117,0.723-0.307,0.995c-0.345,0.495-0.791,0.921-1.195,1.374C588.239,164.762,587.514,159.831,590.268,155.097z"
			/>
		<path fill-rule="evenodd" clip-rule="evenodd" fill="#00933C" d="M592.481,176.355c0.181,3.404,0.362,6.808,0.544,10.211
			c-0.615,0.734-1.429,3.439-1.792,1.823C590.367,184.533,589.372,180.059,592.481,176.355z"/>
		<path fill-rule="evenodd" clip-rule="evenodd" fill="#009137" d="M588.238,138.046c0.215,3.333,0.429,6.667,0.644,10
			c-0.842,0.426-0.953,4.485-2.033,1.374C585.696,146.099,585.062,141.489,588.238,138.046z"/>
		<path fill-rule="evenodd" clip-rule="evenodd" fill="#00933C" d="M586.127,118.884c0.214,3.316,0.428,6.635,0.642,9.954
			c-0.849,0.463-0.931,4.518-2.04,1.476C583.52,127.003,582.906,122.342,586.127,118.884z"/>
		<path fill-rule="evenodd" clip-rule="evenodd" fill="#00933B" d="M581.773,78.469c0.18,3.406,0.359,6.812,0.539,10.218
			c-0.618,0.725-1.435,3.435-1.796,1.806C579.663,86.64,578.651,82.166,581.773,78.469z"/>
		<path fill-rule="evenodd" clip-rule="evenodd" fill="#039540" d="M584.136,103.957c0.174,1.887,0.348,3.773,0.521,5.658
			c-0.292,1.609-0.585,3.217-1.273,7.003C581.88,110.79,581.164,107.253,584.136,103.957z"/>
	</g>
</g>
</svg>
